<?xml version="1.0" standalone="no"?><!DOCTYPE svg PUBLIC "-//W3C//DTD SVG 1.1//EN" "http://www.w3.org/Graphics/SVG/1.1/DTD/svg11.dtd"><svg t="1546320795664" class="icon" style="" viewBox="0 0 1024 1024" version="1.1" xmlns="http://www.w3.org/2000/svg" p-id="1751" xmlns:xlink="http://www.w3.org/1999/xlink" width="200" height="200"><defs><style type="text/css"></style></defs><path d="M743.225806 16.516129H198.193548C153.6 16.516129 115.612903 54.503226 115.612903 99.096774v825.806452c0 46.245161 36.335484 82.580645 82.580645 82.580645h644.129033c46.245161 0 82.580645-36.335484 82.580645-82.580645V198.193548L743.225806 16.516129z m-49.548387 360.051613h-142.038709v295.63871c0 13.212903-11.56129 24.774194-24.774194 24.774193s-24.774194-11.56129-24.774193-24.774193V376.567742H346.83871c-13.212903 0-24.774194-11.56129-24.774194-24.774194s11.56129-24.774194 24.774194-24.774193h346.838709c13.212903 0 24.774194 11.56129 24.774194 24.774193s-11.56129 24.774194-24.774194 24.774194z" fill="#91A7B9" p-id="1752"></path><path d="M746.529032 14.864516H743.225806v132.129032c0 16.516129 8.258065 52.851613 57.806452 52.851613h127.174194L746.529032 14.864516z" fill="#C8D3DC" p-id="1753"></path></svg>