<?xml version="1.0" standalone="no"?><!DOCTYPE svg PUBLIC "-//W3C//DTD SVG 1.1//EN" "http://www.w3.org/Graphics/SVG/1.1/DTD/svg11.dtd"><svg t="1546320750576" class="icon" style="" viewBox="0 0 1024 1024" version="1.1" xmlns="http://www.w3.org/2000/svg" p-id="1284" xmlns:xlink="http://www.w3.org/1999/xlink" width="200" height="200"><defs><style type="text/css"></style></defs><path d="M733.316129 16.516129h-545.032258c-46.245161 0-82.580645 36.335484-82.580645 82.580645v825.806452c0 46.245161 36.335484 82.580645 82.580645 82.580645h644.129032c46.245161 0 82.580645-36.335484 82.580645-82.580645V198.193548l-181.677419-181.677419z m16.516129 584.670968c0 19.819355-21.470968 31.380645-37.987097 21.470968l-85.883871-52.851613v13.212903c0 34.683871-28.077419 62.76129-62.76129 62.76129H333.625806c-34.683871 0-62.76129-28.077419-62.76129-62.76129v-138.735484c0-34.683871 28.077419-62.76129 62.76129-62.76129h229.574194c34.683871 0 62.76129 28.077419 62.76129 62.76129v33.032258l85.883871-52.851613c16.516129-9.909677 37.987097 1.651613 37.987097 21.470968v155.251613z" fill="#8283F2" p-id="1285"></path><path d="M736.619355 14.864516h-3.303226v132.129032c0 16.516129 8.258065 52.851613 57.806452 52.851613h127.174193L736.619355 14.864516z" fill="#C1C1F9" p-id="1286"></path></svg>